<svg width="24" height="24" viewBox="0 0 24 24" fill="none" xmlns="http://www.w3.org/2000/svg">
    <path fill-rule="evenodd" clip-rule="evenodd" d="M7.75736 3C8.81823 3 9.83564 3.42143 10.5858 4.17157L10.8284 4.41421C11.2035 4.78929 11.7122 5 12.2426 5H18C20.2091 5 22 6.79086 22 9V17C22 19.2091 20.2091 21 18 21H6C3.79086 21 2 19.2091 2 17V7C2 4.79086 3.79086 3 6 3H7.75736ZM7.75736 5H6C4.89543 5 4 5.89543 4 7V17C4 18.1046 4.89543 19 6 19H18C19.1046 19 20 18.1046 20 17V9C20 7.89543 19.1046 7 18 7H12.2426C11.1818 7 10.1644 6.57857 9.41421 5.82843L9.17157 5.58579C8.7965 5.21071 8.28779 5 7.75736 5ZM9 15C9.55228 15 10 15.4477 10 16C10 16.5523 9.55228 17 9 17H7C6.44772 17 6 16.5523 6 16C6 15.4477 6.44772 15 7 15H9Z" fill="#9DA0AF"/>
</svg>
